<svg width="341" height="144" viewBox="0 0 341 144" fill="none" xmlns="http://www.w3.org/2000/svg">
<path d="M73.6581 137.328H65.0146L46.4688 133.045L24.0835 93.6898L15.6589 61.4357L14.8164 41.2168L37.2017 51.6873L79.0839 56.9827L103.154 45.6697L124.095 41.2168L117.717 74.554L113.865 98.3837L105.2 125.102L73.6581 137.328Z" fill="white"/>
<path d="M51.7885 104.142C55.1664 104.142 57.9047 100.738 57.9047 96.5392C57.9047 92.3404 55.1664 88.9365 51.7885 88.9365C48.4107 88.9365 45.6724 92.3404 45.6724 96.5392C45.6724 100.738 48.4107 104.142 51.7885 104.142Z" fill="#03B5BB"/>
<path d="M62.2838 127.018C45.0278 127.018 33.0237 115.699 33.0237 96.5128C33.0237 93.5264 33.3954 90.8354 33.9506 88.2967C17.3527 42.2284 19.1482 42.9135 57.8019 66.8633C59.7406 66.5857 57.3228 49.3162 54.099 49.764C-6.32397 12.3326 -10.5372 10.7118 14.1648 79.6956C12.2126 85.073 10.9679 90.9697 10.9365 97.6098C10.8022 111.279 15.4901 123.431 24.0554 131.432C32.6118 139.716 44.8934 144 61.8808 144C74.1669 144 67.1194 127.018 62.2838 127.018Z" fill="#E14597"/>
<path d="M85.029 49.7593C81.8053 49.316 79.3875 66.581 81.3262 66.8586C119.98 42.9088 121.771 42.2238 105.178 88.2921C105.728 90.8308 106.104 93.5217 106.104 96.5081C106.104 115.694 94.1003 127.013 76.8443 127.013C72.0087 127.013 64.9612 143.996 77.2473 143.996C94.2302 143.996 106.516 139.715 115.073 131.428C123.638 123.426 128.326 111.275 128.192 97.6051C128.165 90.9606 126.915 85.0683 124.963 79.6909C149.661 10.7027 145.448 12.3235 85.029 49.7548V49.7593Z" fill="#FFB962"/>
<path d="M87.3393 104.142C90.7172 104.142 93.4555 100.738 93.4555 96.5392C93.4555 92.3404 90.7172 88.9365 87.3393 88.9365C83.9615 88.9365 81.2231 92.3404 81.2231 96.5392C81.2231 100.738 83.9615 104.142 87.3393 104.142Z" fill="#03B5BB"/>
<path d="M34.3175 40.7997C40.0486 46.392 45.3857 52.3738 50.2885 58.7049L49.0751 57.1333C51.5601 60.3571 53.9332 63.6659 56.1853 67.0553C57.7255 69.3746 60.0314 70.9014 62.8925 70.9014C65.4894 70.9014 68.3998 69.4552 69.5997 67.0553C70.6027 65.0405 71.6101 63.0301 72.613 61.0153C73.5488 59.1347 74.3503 57.0303 75.5413 55.2976L74.3279 56.8692C74.4533 56.699 74.6055 56.5513 74.7846 56.4304L73.213 57.6437L73.4951 57.5005L71.6414 58.284L71.9235 58.2124L69.8594 58.49L70.137 58.481L68.0729 58.2034C68.2565 58.2213 68.4356 58.2706 68.6012 58.3512L66.7476 57.5676C66.9222 57.6572 67.0879 57.7646 67.2356 57.89L65.664 56.6766C65.9058 56.9005 66.1028 57.1199 66.3088 57.3796L65.0954 55.808C66.4566 57.7557 67.4505 60.0392 68.5744 62.1301C69.7788 64.3599 70.9788 66.5941 72.1832 68.8239C73.6518 71.5506 76.9696 72.9297 79.9247 72.5312C82.8798 72.1327 85.6513 69.9612 86.3811 66.9658C87.9841 60.4108 90.1108 53.9946 92.7346 47.7755L91.9511 49.6292C96.2091 39.6176 101.725 30.1792 108.37 21.5691L107.156 23.1407C109.838 19.6841 112.691 16.3708 115.713 13.2097C118.525 10.2725 118.852 5.10559 115.713 2.2266C112.668 -0.567318 107.73 -0.91208 104.73 2.2266C91.9287 15.6186 82.1276 31.5179 75.6756 48.868C73.9786 53.435 72.5548 58.1004 71.3996 62.8331L85.5976 60.9794C84.1111 58.2213 82.6291 55.4632 81.1425 52.7096C79.0874 48.8949 77.1576 44.6413 72.6086 43.316C69.3176 42.3578 65.682 43.3473 63.3582 45.8726C62.0149 47.3277 61.2538 49.0784 60.3807 50.8246C58.9882 53.6185 57.5957 56.408 56.2032 59.2019H69.6176C62.5657 48.6038 54.4346 38.6908 45.323 29.8031C42.4127 26.9644 37.201 26.6868 34.3399 29.8031C31.5236 32.8701 31.2326 37.755 34.3399 40.7862L34.3175 40.7997Z" fill="#4BCC4B"/>
<path d="M151.143 93.1139C150.498 93.1676 149.845 93.1721 149.186 93.1318C148.528 93.0915 147.901 92.9706 147.31 92.7646C146.276 92.4288 145.425 91.8871 144.754 91.1393C144.033 90.3379 143.428 89.4513 142.954 88.4708C142.475 87.4902 142.045 86.5097 141.655 85.5291C141.037 83.9799 140.5 82.4083 140.048 80.8054C139.596 79.207 139.175 77.5906 138.79 75.9653C138.53 74.8549 138.275 73.758 138.015 72.6744C137.756 71.5909 137.536 70.4805 137.357 69.3477C137.303 68.9582 137.267 68.5686 137.241 68.1656C137.214 67.7672 137.267 67.3866 137.397 67.0239C137.473 66.7642 137.59 66.5269 137.747 66.3075C137.903 66.0881 138.082 65.9001 138.288 65.7478C138.57 65.5419 138.87 65.3807 139.179 65.2643C139.488 65.1479 139.811 65.0494 140.146 64.9732C140.585 64.8703 141.015 64.7986 141.445 64.7583C141.87 64.718 142.305 64.6732 142.743 64.624C143.128 64.5703 143.531 64.5703 143.943 64.624C144.355 64.6777 144.718 64.8031 145.027 65.0091C145.416 65.2687 145.725 65.5956 145.958 65.9986C146.191 66.3971 146.37 66.8179 146.5 67.2567C146.76 68.0851 146.93 68.9268 147.024 69.7909C147.113 70.6551 147.225 71.5148 147.351 72.3655C147.481 73.449 147.646 74.5326 147.852 75.6161C148.058 76.6996 148.278 77.7832 148.51 78.8667C148.64 79.4846 148.788 80.1114 148.954 80.7427C149.119 81.3741 149.374 81.9606 149.71 82.5024C149.84 82.6815 150.028 82.7979 150.27 82.8516C150.516 82.9053 150.727 82.8785 150.91 82.7755C150.959 82.7218 151.045 82.6636 151.161 82.6009C151.277 82.5382 151.362 82.48 151.412 82.4263C151.9 81.7054 152.249 80.9039 152.455 80.0264C152.661 79.1488 152.827 78.2712 152.956 77.3936C153.162 75.9206 153.364 74.4654 153.556 73.0192C153.749 71.573 153.964 70.1178 154.197 68.6447C154.273 68.103 154.371 67.5478 154.488 66.9791C154.604 66.4105 154.828 65.909 155.164 65.4702C155.473 65.0807 155.898 64.8255 156.44 64.6956C156.825 64.5927 157.219 64.5524 157.622 64.5792C158.02 64.6061 158.414 64.6419 158.804 64.6956C158.831 64.7225 158.858 64.7225 158.88 64.6956C159.292 64.6419 159.695 64.5971 160.08 64.5613C160.465 64.521 160.868 64.5165 161.28 64.5434C161.562 64.5703 161.84 64.6195 162.113 64.7001C162.386 64.7762 162.637 64.9061 162.869 65.0852C163.178 65.3449 163.429 65.6583 163.626 66.0344C163.819 66.4105 163.98 66.7911 164.11 67.1761C164.369 68.0045 164.54 68.8462 164.634 69.7104C164.723 70.5745 164.835 71.4476 164.96 72.3207C165.09 73.4042 165.251 74.4833 165.444 75.5534C165.637 76.6235 165.851 77.7026 166.084 78.7861C166.214 79.4309 166.362 80.0711 166.528 80.7024C166.693 81.3338 166.957 81.9203 167.32 82.4621C167.423 82.6412 167.598 82.7531 167.844 82.7934C168.09 82.8337 168.301 82.7979 168.484 82.6949C168.533 82.668 168.627 82.6233 168.753 82.5606C168.883 82.4979 168.959 82.4397 168.986 82.386C169.268 81.974 169.496 81.5263 169.662 81.0517C169.827 80.5726 169.98 80.089 170.105 79.601C170.154 79.3682 170.235 78.9697 170.338 78.4011C170.441 77.8324 170.544 77.1832 170.647 76.4444C170.75 75.7101 170.862 74.9266 170.978 74.1027C171.095 73.2789 171.202 72.4953 171.305 71.761C171.408 71.0267 171.497 70.373 171.578 69.8044C171.654 69.2357 171.721 68.8238 171.771 68.5641C171.847 68.0985 171.936 67.6284 172.039 67.1493C172.142 66.6702 172.312 66.2135 172.541 65.7747C172.8 65.2329 173.212 64.8703 173.781 64.6912C174.144 64.5613 174.524 64.5031 174.923 64.5165C175.321 64.53 175.702 64.5613 176.064 64.615C176.888 64.6912 177.703 64.9106 178.505 65.2732C178.684 65.3762 178.854 65.4881 179.006 65.6046C179.163 65.721 179.288 65.8687 179.391 66.0478C179.624 66.4597 179.714 66.9254 179.664 67.4403C179.611 68.6805 179.458 69.8984 179.199 71.0984C178.939 72.2983 178.67 73.4938 178.384 74.6803C177.891 76.7981 177.345 78.8891 176.741 80.9532C176.132 83.0173 175.442 85.0545 174.668 87.0694C174.385 87.7678 174.085 88.4439 173.777 89.1021C173.468 89.7603 173.091 90.3871 172.653 90.9781C172.29 91.4438 171.86 91.8423 171.354 92.1781C170.853 92.5139 170.315 92.7467 169.747 92.8766C168.945 93.0557 168.126 93.1363 167.289 93.1094C166.451 93.0825 165.645 92.9527 164.871 92.7243C163.89 92.4154 163.04 91.8602 162.314 91.0587C161.746 90.414 161.258 89.7289 160.841 89.0081C160.349 88.1036 159.91 87.1679 159.525 86.2007C159.14 85.2336 158.764 84.2575 158.401 83.277C158.038 84.4142 157.667 85.5336 157.277 86.644C156.892 87.7544 156.4 88.8245 155.804 89.8588C155.544 90.2976 155.262 90.7229 154.953 91.1349C154.644 91.5468 154.268 91.896 153.83 92.1781C153.444 92.4647 153.01 92.6751 152.531 92.8184C152.052 92.9617 151.582 93.0557 151.116 93.1094L151.143 93.1139Z" fill="#03B5BB"/>
<path d="M192.949 92.3791C192.51 92.7642 191.955 93.0373 191.283 93.194C190.612 93.3507 189.904 93.4134 189.156 93.3865C188.409 93.3597 187.665 93.2567 186.931 93.0776C186.197 92.8985 185.57 92.688 185.055 92.4597C184.589 92.2537 184.16 91.9761 183.757 91.6269C183.358 91.2777 183 90.8971 182.691 90.4852C182.404 90.1225 182.154 89.7419 181.934 89.3434C181.715 88.9449 181.554 88.524 181.451 88.0852C181.272 87.2345 181.146 86.3838 181.084 85.5286C181.021 84.6779 180.985 83.8272 180.985 82.972C180.985 82.5064 180.99 81.8616 181.003 81.0378C181.016 80.2139 181.061 79.3587 181.137 78.4812C181.213 77.6036 181.339 76.7932 181.504 76.041C181.675 75.2932 181.912 74.738 182.221 74.3754C182.481 74.0933 182.803 73.8739 183.188 73.7172C183.578 73.5605 183.963 73.4575 184.348 73.4082C185.561 73.2784 186.734 73.3679 187.871 73.6814C188.207 73.7575 188.53 73.856 188.839 73.9724C189.147 74.0888 189.443 74.25 189.73 74.456C190.038 74.7156 190.285 75.0515 190.464 75.4634C190.67 76.032 190.759 76.6186 190.737 77.223C190.71 77.8275 190.647 78.4274 190.544 79.0229C190.415 79.7707 190.307 80.5274 190.218 81.2885C190.128 82.0497 190.106 82.8064 190.159 83.5541C190.159 83.8138 190.164 84.0645 190.177 84.3108C190.191 84.557 190.249 84.7943 190.352 85.0272C190.428 85.2331 190.612 85.363 190.894 85.4167C191.203 85.4928 191.521 85.5197 191.843 85.4928C192.165 85.466 192.47 85.5197 192.752 85.6495C192.958 85.7256 193.141 85.8689 193.294 86.0749C193.45 86.2808 193.576 86.4868 193.679 86.6928C193.782 86.9748 193.853 87.2748 193.894 87.5838C193.934 87.8927 193.965 88.1927 193.992 88.4748C194.019 88.9136 194.019 89.3434 193.992 89.7732C193.965 90.1986 193.889 90.6195 193.759 91.0314C193.603 91.5463 193.334 91.9985 192.944 92.3881L192.949 92.3791ZM190.397 71.5904C190.088 71.7964 189.738 71.9396 189.353 72.0158C188.964 72.0919 188.592 72.1322 188.23 72.1322C188.153 72.1322 187.97 72.1187 187.688 72.0919C187.406 72.065 187.222 72.0516 187.146 72.0516C186.94 72.1053 186.667 72.1098 186.331 72.0695C185.995 72.0292 185.642 71.9799 185.266 71.9128C184.889 71.8501 184.536 71.7695 184.2 71.6799C183.864 71.5904 183.618 71.4919 183.466 71.3889C183 71.1292 182.651 70.7576 182.422 70.2651C182.266 69.9293 182.163 69.5666 182.113 69.1815C182.06 68.792 182.055 68.4069 182.096 68.0219C182.136 67.6324 182.23 67.2652 182.387 66.9204C182.543 66.5712 182.736 66.2667 182.969 66.0115C183.228 65.7294 183.51 65.5011 183.819 65.3354C184.128 65.1698 184.464 65.031 184.827 64.928C185.574 64.722 186.34 64.6235 187.128 64.637C187.916 64.6504 188.659 64.7981 189.353 65.0802C189.819 65.2593 190.235 65.5459 190.612 65.9309C190.983 66.316 191.265 66.7324 191.444 67.1712C191.574 67.5339 191.65 67.9279 191.677 68.3532C191.704 68.7786 191.677 69.1995 191.601 69.6114C191.525 70.0233 191.382 70.4039 191.176 70.7531C190.97 71.1024 190.71 71.38 190.401 71.5859L190.397 71.5904Z" fill="#03B5BB"/>
<path d="M208.203 92.6881C207.738 92.9702 207.223 93.1582 206.654 93.2478C206.086 93.3373 205.517 93.3687 204.953 93.3463C203.945 93.2925 202.938 93.1269 201.935 92.8448C200.928 92.5627 200.014 92.1374 199.186 91.5687C198.693 91.2329 198.25 90.8479 197.852 90.4091C197.453 89.9703 197.095 89.4957 196.786 88.9763C196.423 88.3315 196.146 87.6555 195.953 86.9435C195.761 86.2361 195.613 85.5197 195.51 84.7944C195.331 83.4019 195.237 82.0005 195.237 80.5945C195.237 79.1886 195.277 77.7738 195.353 76.3544C195.407 75.1142 195.474 73.8694 195.568 72.6202C195.658 71.371 195.805 70.1218 196.011 68.8861C196.088 68.4741 196.182 68.0712 196.285 67.6861C196.388 67.3011 196.504 66.9115 196.634 66.5265C196.893 65.9086 197.279 65.3892 197.793 64.9773C198.076 64.7713 198.38 64.6236 198.702 64.534C199.025 64.4445 199.356 64.3863 199.692 64.3594C200.287 64.3101 200.892 64.2967 201.51 64.3191C202.128 64.346 202.737 64.3818 203.328 64.4355C203.69 64.4892 204.044 64.5519 204.393 64.628C204.742 64.7041 205.069 64.8206 205.383 64.9773C205.665 65.134 205.907 65.3534 206.099 65.6355C206.292 65.9175 206.426 66.2175 206.507 66.5265C206.636 67.019 206.708 67.507 206.721 67.9995C206.735 68.4921 206.717 68.9935 206.663 69.5084C206.61 70.4621 206.529 71.4113 206.412 72.3516C206.296 73.2919 206.162 74.2276 206.005 75.1589C205.799 76.3455 205.629 77.532 205.504 78.7185C205.374 79.905 205.401 81.0915 205.58 82.2781C205.607 82.484 205.651 82.7213 205.714 82.9944C205.777 83.2631 205.862 83.5228 205.965 83.769C206.068 84.0153 206.189 84.2347 206.332 84.4272C206.475 84.6198 206.65 84.7317 206.856 84.7586C207.218 84.8347 207.599 84.8705 207.998 84.8571C208.396 84.8436 208.741 84.969 209.023 85.2242C209.305 85.4839 209.52 85.8421 209.663 86.3077C209.806 86.7734 209.887 87.2749 209.914 87.8166C209.941 88.3584 209.918 88.8867 209.856 89.4016C209.793 89.9166 209.708 90.3688 209.605 90.7583C209.502 91.1434 209.327 91.515 209.081 91.8598C208.835 92.2045 208.544 92.4866 208.208 92.6926L208.203 92.6881Z" fill="#03B5BB"/>
<path d="M225.003 89.4731C224.434 90.4805 223.7 91.3133 222.795 91.9715C221.891 92.6297 220.919 93.0864 219.872 93.3461C218.828 93.6058 217.754 93.6416 216.657 93.4625C215.56 93.2834 214.534 92.867 213.581 92.2222C213.272 92.0163 212.981 91.779 212.708 91.5058C212.434 91.2327 212.197 90.9327 211.991 90.5969C211.499 89.8492 211.172 89.0209 211.002 88.1209C210.832 87.2165 210.751 86.3165 210.751 85.4121C210.751 84.2524 210.849 83.0972 211.042 81.9465C211.235 80.8003 211.512 79.6809 211.875 78.5974C212.184 77.693 212.596 76.8244 213.115 75.9871C213.63 75.1498 214.261 74.4334 215.014 73.8379C215.452 73.4752 215.949 73.1797 216.504 72.9469C217.06 72.7141 217.633 72.5618 218.228 72.4812C218.743 72.4051 219.267 72.3962 219.795 72.4633C220.324 72.526 220.848 72.6245 221.363 72.7544C221.774 72.8842 222.168 73.0364 222.545 73.22C222.916 73.3991 223.288 73.5961 223.646 73.8021C223.646 73.5961 223.664 73.1842 223.704 72.5618C223.744 71.9439 223.789 71.2768 223.839 70.5694C223.892 69.8619 223.942 69.1948 223.995 68.5769C224.049 67.959 224.085 67.5337 224.112 67.3009C224.161 66.8889 224.268 66.4681 224.421 66.0427C224.577 65.6173 224.819 65.2636 225.155 64.9771C225.464 64.695 225.844 64.5248 226.297 64.4756C226.749 64.4219 227.179 64.4353 227.595 64.5159C228.522 64.6726 229.453 64.9681 230.38 65.4069C230.743 65.586 231.096 65.8009 231.446 66.0472C231.795 66.2934 232.086 66.5979 232.319 66.9561C232.601 67.368 232.789 67.8202 232.878 68.3128C232.968 68.8053 233.04 69.2933 233.093 69.7858C233.143 70.8201 233.111 71.8454 232.995 72.8618C232.878 73.8827 232.758 74.8946 232.628 75.902C232.498 77.0885 232.381 78.2706 232.279 79.4436C232.176 80.6167 232.086 81.7988 232.005 82.9853C231.952 83.3748 231.92 83.7599 231.907 84.145C231.893 84.53 231.911 84.9195 231.965 85.3046C232.019 85.6135 232.086 85.918 232.18 86.2135C232.27 86.509 232.417 86.7598 232.623 86.9702C232.78 87.1269 232.977 87.2344 233.223 87.2971C233.469 87.3597 233.693 87.3821 233.899 87.3553C234.181 87.3553 234.455 87.3284 234.714 87.2792C234.974 87.2299 235.229 87.2523 235.489 87.3553C235.928 87.4851 236.263 87.8254 236.496 88.3806C236.729 88.9358 236.845 89.4328 236.845 89.8716C236.819 90.3596 236.729 90.8521 236.577 91.3447C236.42 91.8372 236.165 92.2222 235.802 92.5043C235.363 92.8401 234.862 93.0461 234.293 93.1222C233.725 93.1983 233.169 93.252 232.628 93.2789C231.723 93.3058 230.801 93.2207 229.861 93.0282C228.916 92.8356 228.047 92.4909 227.246 92.0028C226.265 91.3581 225.518 90.5208 225.003 89.4865V89.4731ZM219.93 86.3792C220.189 86.5359 220.458 86.5851 220.745 86.5359C221.027 86.4822 221.291 86.3747 221.537 86.209C221.783 86.0389 222.016 85.8374 222.236 85.5912C222.455 85.3449 222.643 85.0942 222.795 84.8345C223.18 84.1629 223.471 83.433 223.668 82.6495C223.861 81.8615 223.933 81.0824 223.883 80.3078C223.856 79.7929 223.78 79.278 223.65 78.7586C223.521 78.2437 223.288 77.778 222.952 77.3661C222.795 77.1602 222.598 76.9855 222.352 76.8423C222.106 76.699 221.855 76.6408 221.595 76.6676C221.286 76.7214 221 76.8288 220.745 76.9945C220.485 77.1646 220.252 77.3616 220.046 77.5945C219.531 78.1631 219.142 78.8213 218.886 79.569C218.627 80.3167 218.461 81.0645 218.385 81.8122C218.331 82.3808 218.345 82.954 218.425 83.536C218.506 84.1181 218.658 84.6643 218.891 85.1792C219.021 85.4121 219.169 85.6359 219.334 85.8553C219.504 86.0747 219.701 86.2493 219.934 86.3792H219.93Z" fill="#03B5BB"/>
<path d="M246.409 93.1544C245.662 93.3335 244.891 93.432 244.108 93.4454C243.32 93.4588 242.554 93.3603 241.807 93.1544C241.108 92.9977 240.53 92.6663 240.065 92.147C239.756 91.838 239.523 91.4619 239.366 91.0231C239.21 90.5843 239.084 90.1455 238.981 89.7068C238.748 88.6501 238.587 87.5889 238.498 86.5323C238.408 85.4756 238.337 84.4055 238.283 83.3175C238.207 81.4325 238.184 79.5609 238.225 77.7028C238.265 75.8446 238.337 73.9731 238.44 72.0881C238.493 71.2642 238.542 70.4493 238.596 69.6479C238.65 68.8464 238.739 68.036 238.869 67.2077C238.896 67.0286 238.914 66.845 238.928 66.6659C238.941 66.4868 239.013 66.3301 239.142 66.2002C239.272 65.8913 239.425 65.5958 239.608 65.3092C239.787 65.0272 240.02 64.8078 240.307 64.6511C240.589 64.472 240.938 64.3779 241.35 64.3779C241.865 64.3779 242.38 64.4317 242.899 64.5346C243.414 64.6376 243.929 64.754 244.448 64.8839C244.887 65.0137 245.326 65.1883 245.765 65.4077C246.203 65.6271 246.579 65.9182 246.888 66.2808C247.251 66.6659 247.515 67.1271 247.681 67.6554C247.847 68.1837 247.972 68.7076 248.048 69.2225C248.178 70.2031 248.227 71.1971 248.205 72.2045C248.178 73.2119 248.142 74.2193 248.088 75.2223C248.603 74.7566 249.167 74.3581 249.772 74.0223C250.376 73.6865 251.017 73.4537 251.688 73.3238C252.284 73.194 252.888 73.1806 253.506 73.2835C254.124 73.3865 254.719 73.5522 255.288 73.785C256.036 74.094 256.707 74.5327 257.303 75.1014C257.898 75.67 258.413 76.2879 258.852 76.9595C259.524 77.9938 260.012 79.1266 260.325 80.3668C260.634 81.6071 260.71 82.8428 260.558 84.0831C260.455 84.7278 260.312 85.3726 260.133 86.0173C259.954 86.6621 259.721 87.2845 259.434 87.8755C259.022 88.7262 258.467 89.5277 257.769 90.2754C257.07 91.0231 256.273 91.5649 255.369 91.9007C254.773 92.1067 254.142 92.1962 253.47 92.1693C252.799 92.1425 252.154 92.0395 251.536 91.8604C251.07 91.7306 250.614 91.5694 250.161 91.3768C249.709 91.1843 249.288 90.947 248.903 90.6604C248.85 90.9425 248.773 91.2156 248.67 91.4753C248.567 91.735 248.424 91.9679 248.245 92.1738C248.012 92.4335 247.735 92.6395 247.412 92.7917C247.09 92.9484 246.759 93.0648 246.423 93.1409L246.409 93.1544ZM250.896 86.5726C251.232 86.5994 251.558 86.5457 251.881 86.4158C252.203 86.286 252.481 86.1069 252.714 85.8741C252.996 85.592 253.215 85.2472 253.372 84.8487C253.528 84.4502 253.667 84.0562 253.797 83.6667C253.927 83.304 253.999 82.8652 254.012 82.3503C254.025 81.8354 253.981 81.3116 253.878 80.7832C253.775 80.2549 253.627 79.7579 253.434 79.2922C253.242 78.8266 253.014 78.455 252.758 78.1684C252.552 77.9356 252.293 77.7565 251.984 77.6266C251.702 77.4968 251.397 77.4476 251.075 77.4699C250.752 77.4968 250.448 77.5729 250.166 77.7028C249.727 77.9087 249.378 78.2177 249.123 78.6341C248.944 78.8938 248.805 79.2609 248.715 79.7355C248.626 80.2146 248.572 80.7161 248.559 81.2444C248.545 81.7727 248.554 82.2877 248.576 82.7936C248.603 83.2951 248.639 83.7025 248.693 84.0115C248.742 84.2712 248.841 84.5398 248.984 84.8264C249.127 85.1084 249.293 85.3816 249.485 85.6412C249.678 85.9009 249.897 86.1114 250.144 86.2815C250.39 86.4517 250.641 86.5457 250.9 86.5726H250.896Z" fill="#03B5BB"/>
<path d="M275.052 94.0813C273.811 94.2381 272.576 94.2739 271.335 94.1978C270.252 94.144 269.209 93.9381 268.201 93.5799C267.194 93.2172 266.2 92.8187 265.219 92.3799C264.471 92.0173 263.827 91.4755 263.285 90.7546C262.743 90.0337 262.367 89.2726 262.161 88.4711C261.749 87.0518 261.592 85.5877 261.695 84.0788C261.798 82.5699 262.004 81.0923 262.313 79.6461C262.443 78.9745 262.622 78.3029 262.855 77.6313C263.088 76.9597 263.41 76.3283 263.822 75.7328C264.261 75.0612 264.812 74.4702 265.465 73.9508C266.124 73.4359 266.827 73.0329 267.574 72.7509C268.295 72.4912 269.052 72.3434 269.84 72.3076C270.628 72.2673 271.407 72.2763 272.182 72.3255C273.319 72.4016 274.434 72.6613 275.531 73.1001C276.628 73.5389 277.586 74.1568 278.414 74.9582C279.113 75.6299 279.61 76.4806 279.905 77.5149C280.201 78.5491 280.313 79.5521 280.237 80.5326C280.183 81.0475 280.093 81.5669 279.963 82.0818C279.834 82.5967 279.587 83.0355 279.229 83.3982C278.871 83.7609 278.437 84.025 277.931 84.1907C277.429 84.3608 276.932 84.4549 276.44 84.4817C275.795 84.5086 275.155 84.4862 274.523 84.4235C273.892 84.3608 273.252 84.325 272.607 84.325H272.083C271.864 84.325 271.649 84.3295 271.443 84.3429C271.237 84.3564 271.044 84.3967 270.861 84.4593C270.682 84.522 270.552 84.6071 270.471 84.7101C270.417 84.7862 270.386 84.9474 270.373 85.1936C270.359 85.4399 270.341 85.6145 270.315 85.7175C270.315 85.8474 270.328 86.0667 270.355 86.3757C270.382 86.6846 270.417 86.8906 270.471 86.9936C270.547 87.1234 270.664 87.2219 270.82 87.2846C270.977 87.3473 271.152 87.401 271.344 87.4413C271.537 87.4816 271.738 87.504 271.944 87.5174C272.15 87.5309 272.316 87.5353 272.446 87.5353C273.27 87.5891 274.102 87.5891 274.944 87.5353C275.781 87.4816 276.614 87.4816 277.443 87.5353C277.778 87.5622 278.119 87.6338 278.468 87.7503C278.817 87.8667 279.095 88.0682 279.301 88.3502C279.534 88.6592 279.654 89.0263 279.668 89.4517C279.681 89.877 279.663 90.2979 279.61 90.7098C279.556 91.0188 279.507 91.3367 279.453 91.6591C279.399 91.9814 279.274 92.2859 279.068 92.568C278.938 92.7739 278.777 92.9396 278.584 93.0694C278.392 93.1993 278.19 93.3157 277.984 93.4187C277.519 93.6246 277.044 93.7724 276.552 93.8664C276.059 93.956 275.558 94.0276 275.043 94.0769L275.052 94.0813ZM270.874 82.4669C271.237 82.5967 271.635 82.6102 272.074 82.5072C272.513 82.4042 272.835 82.1982 273.041 81.8893C273.198 81.6072 273.319 81.2759 273.408 80.9043C273.498 80.5326 273.538 80.1431 273.525 79.7446C273.511 79.3461 273.449 78.9655 273.332 78.6029C273.216 78.2402 273.055 77.9447 272.849 77.7119C272.719 77.5551 272.571 77.4298 272.405 77.3268C272.235 77.2238 272.065 77.1835 271.882 77.2104C271.622 77.2104 271.394 77.282 271.183 77.4253C270.977 77.5686 270.798 77.7432 270.641 77.9492C270.279 78.388 270.041 78.9297 269.925 79.5745C269.809 80.2192 269.826 80.8282 269.983 81.3923C270.037 81.6251 270.14 81.8445 270.292 82.0505C270.449 82.2565 270.641 82.3997 270.874 82.4758V82.4669Z" fill="#03B5BB"/>
<path d="M288.56 93.3066C287.991 93.4364 287.432 93.5304 286.876 93.5976C286.321 93.6603 285.762 93.6692 285.193 93.6155C284.781 93.5887 284.374 93.5394 283.975 93.4588C283.577 93.3827 283.169 93.3021 282.757 93.226C282.578 93.1991 282.435 93.0827 282.332 92.8767C282.229 92.6708 282.162 92.4648 282.139 92.2589C282.086 91.9231 282.054 91.5872 282.041 91.2514C282.027 90.9156 282.01 90.5798 281.983 90.244C281.853 87.6381 281.853 85.0368 281.983 82.4443C282.112 79.8519 282.292 77.2505 282.524 74.6446C282.551 74.5148 282.569 74.273 282.583 73.9104C282.596 73.5477 282.627 73.3059 282.681 73.1761C282.784 72.9701 282.918 72.8044 283.089 72.6746C283.254 72.5447 283.442 72.4417 283.648 72.3656C283.778 72.3119 284.015 72.2582 284.365 72.191C284.714 72.1283 285.085 72.0746 285.488 72.0343C285.887 71.994 286.268 71.9627 286.63 71.9358C286.993 71.9089 287.248 71.8955 287.405 71.8955H287.812C288.005 71.8955 288.22 71.9 288.453 71.9134C288.685 71.9268 288.896 71.9403 289.093 71.9537C289.285 71.9671 289.424 71.9851 289.5 72.0119C289.603 72.0388 289.724 72.1149 289.867 72.2447C290.011 72.3746 290.105 72.4776 290.158 72.5537C290.208 72.6567 290.244 72.8582 290.257 73.1537C290.27 73.4492 290.275 73.6641 290.275 73.7939C290.275 74.076 290.27 74.3536 290.257 74.6267C290.244 74.8999 290.239 75.1775 290.239 75.4595C290.911 74.8417 291.64 74.2775 292.424 73.776C293.212 73.2746 294.054 72.9164 294.958 72.7104C295.397 72.6074 295.836 72.5223 296.275 72.4597C296.713 72.397 297.152 72.388 297.591 72.4417C297.645 72.4417 297.707 72.4462 297.784 72.4597C297.86 72.4731 297.927 72.4686 297.976 72.4417C298.155 72.388 298.325 72.4104 298.478 72.5C298.634 72.5895 298.737 72.7149 298.786 72.8671C298.813 72.9701 298.831 73.1268 298.845 73.3328C298.858 73.5387 298.863 73.7671 298.863 74.0088C298.863 74.2506 298.849 74.4879 298.822 74.7073C298.795 74.9267 298.782 75.0879 298.782 75.1909C298.782 75.2939 298.764 75.5177 298.724 75.867C298.683 76.2162 298.652 76.5968 298.625 77.0087C298.598 77.4207 298.567 77.8102 298.527 78.1684C298.486 78.5311 298.469 78.7639 298.469 78.8669V79.234C298.469 79.3504 298.442 79.4713 298.392 79.6012C298.316 79.8609 298.119 80.0265 297.81 80.1026C297.681 80.1295 297.421 80.1161 297.036 80.0623C296.651 80.0086 296.391 79.9862 296.261 79.9862C295.822 79.9594 295.379 79.9594 294.927 79.9862C294.475 80.0131 294.031 80.1161 293.593 80.2952C293.078 80.5011 292.603 80.7922 292.178 81.1683C291.752 81.5444 291.399 81.9608 291.112 82.4264C290.906 82.7622 290.749 83.1159 290.646 83.492C290.543 83.8682 290.441 84.2353 290.338 84.5935C290.055 85.6278 289.93 86.671 289.97 87.7277C290.011 88.7844 290.082 89.8455 290.185 90.9022C290.212 91.135 290.239 91.4619 290.261 91.8872C290.288 92.3126 290.208 92.6036 290.029 92.7603C289.899 92.9932 289.72 93.1096 289.487 93.1096C289.433 93.1096 289.281 93.1364 289.021 93.1857C288.761 93.2394 288.609 93.2752 288.556 93.3021L288.56 93.3066Z" fill="#03B5BB"/>
<path d="M306.873 93.3066C306.304 93.4364 305.744 93.5304 305.189 93.5976C304.634 93.6603 304.074 93.6692 303.506 93.6155C303.094 93.5887 302.686 93.5394 302.288 93.4588C301.889 93.3827 301.482 93.3021 301.07 93.226C300.891 93.1991 300.748 93.0827 300.645 92.8767C300.542 92.6708 300.474 92.4648 300.452 92.2589C300.398 91.9231 300.367 91.5872 300.354 91.2514C300.34 90.9156 300.322 90.5798 300.295 90.244C300.166 87.6381 300.166 85.0368 300.295 82.4443C300.425 79.8519 300.604 77.2505 300.837 74.6446C300.864 74.5148 300.882 74.273 300.895 73.9104C300.909 73.5477 300.94 73.3059 300.994 73.1761C301.097 72.9701 301.231 72.8044 301.401 72.6746C301.567 72.5447 301.755 72.4417 301.961 72.3656C302.091 72.3119 302.328 72.2582 302.677 72.191C303.027 72.1283 303.398 72.0746 303.801 72.0343C304.2 71.994 304.58 71.9627 304.943 71.9358C305.306 71.9089 305.561 71.8955 305.718 71.8955H306.125C306.318 71.8955 306.532 71.9 306.765 71.9134C306.998 71.9268 307.209 71.9403 307.406 71.9537C307.598 71.9671 307.737 71.9851 307.813 72.0119C307.916 72.0388 308.037 72.1149 308.18 72.2447C308.323 72.3746 308.417 72.4776 308.471 72.5537C308.52 72.6567 308.556 72.8582 308.57 73.1537C308.583 73.4492 308.588 73.6641 308.588 73.7939C308.588 74.076 308.583 74.3536 308.57 74.6267C308.556 74.8999 308.552 75.1775 308.552 75.4595C309.223 74.8417 309.953 74.2775 310.737 73.776C311.525 73.2746 312.367 72.9164 313.271 72.7104C313.71 72.6074 314.149 72.5223 314.587 72.4597C315.026 72.397 315.465 72.388 315.904 72.4417C315.957 72.4417 316.02 72.4462 316.096 72.4597C316.172 72.4731 316.24 72.4686 316.289 72.4417C316.468 72.388 316.638 72.4104 316.79 72.5C316.947 72.5895 317.05 72.7149 317.099 72.8671C317.126 72.9701 317.144 73.1268 317.157 73.3328C317.171 73.5387 317.175 73.7671 317.175 74.0088C317.175 74.2506 317.162 74.4879 317.135 74.7073C317.108 74.9267 317.095 75.0879 317.095 75.1909C317.095 75.2939 317.077 75.5177 317.037 75.867C316.996 76.2162 316.965 76.5968 316.938 77.0087C316.911 77.4207 316.88 77.8102 316.84 78.1684C316.799 78.5311 316.781 78.7639 316.781 78.8669V79.234C316.781 79.3504 316.754 79.4713 316.705 79.6012C316.629 79.8609 316.432 80.0265 316.123 80.1026C315.993 80.1295 315.734 80.1161 315.349 80.0623C314.963 80.0086 314.704 79.9862 314.574 79.9862C314.135 79.9594 313.692 79.9594 313.24 79.9862C312.787 80.0131 312.344 80.1161 311.905 80.2952C311.39 80.5011 310.916 80.7922 310.491 81.1683C310.065 81.5444 309.711 81.9608 309.425 82.4264C309.219 82.7622 309.062 83.1159 308.959 83.492C308.856 83.8682 308.753 84.2353 308.65 84.5935C308.368 85.6278 308.243 86.671 308.283 87.7277C308.323 88.7844 308.395 89.8455 308.498 90.9022C308.525 91.135 308.552 91.4619 308.574 91.8872C308.601 92.3126 308.52 92.6036 308.341 92.7603C308.212 92.9932 308.032 93.1096 307.8 93.1096C307.746 93.1096 307.594 93.1364 307.334 93.1857C307.074 93.2394 306.922 93.2752 306.868 93.3021L306.873 93.3066Z" fill="#03B5BB"/>
<path d="M329.905 102.987C329.493 103.063 329.076 103.085 328.665 103.045C328.253 103.004 327.85 102.946 327.465 102.87C327.053 102.767 326.587 102.619 326.072 102.427C325.557 102.234 325.078 102.001 324.639 101.728C324.2 101.455 323.82 101.146 323.498 100.797C323.175 100.448 323.001 100.054 322.974 99.615C322.947 99.3822 322.978 99.1494 323.072 98.9165C323.162 98.6837 323.274 98.4643 323.404 98.2584C323.686 97.8196 323.977 97.3853 324.277 96.9599C324.572 96.5346 324.863 96.1002 325.145 95.6615C325.557 94.9898 325.947 94.3048 326.305 93.6108C326.668 92.9123 327.026 92.2183 327.388 91.5198C326.587 91.3407 325.839 91.0184 325.145 90.5527C324.447 90.0871 323.802 89.5856 323.211 89.0438C322.074 88.014 321.107 86.8096 320.31 85.444C319.508 84.0783 318.931 82.659 318.568 81.1859C318.362 80.4651 318.232 79.7397 318.183 79.0188C318.129 78.298 318.093 77.5726 318.066 76.8518C318.066 76.4622 318.08 76.0772 318.107 75.6921C318.134 75.3026 318.183 74.931 318.263 74.5683C318.34 73.9996 318.599 73.5385 319.038 73.1758C319.45 72.84 319.929 72.6072 320.471 72.4773C321.013 72.3475 321.541 72.2311 322.056 72.1281C322.544 72.052 323.036 71.9848 323.529 71.9356C324.017 71.8863 324.509 71.8729 325.002 71.8953C325.517 71.949 325.933 72.1415 326.242 72.4773C326.399 72.634 326.52 72.8176 326.609 73.037C326.699 73.2564 326.771 73.4803 326.824 73.7131C327.003 74.5369 327.088 75.3653 327.075 76.1891C327.062 77.013 327.133 77.8413 327.29 78.6651C327.469 79.5696 327.814 80.4203 328.315 81.2217C328.817 82.0232 329.403 82.7306 330.075 83.353C330.335 82.2963 330.563 81.2441 330.773 80.1964C330.979 79.1532 331.212 78.0875 331.472 77.004C331.575 76.6145 331.638 76.216 331.664 75.8041C331.691 75.3921 331.767 74.9892 331.897 74.6041C331.973 74.3713 332.09 74.1474 332.246 73.928C332.403 73.7086 332.582 73.534 332.788 73.4042C333.097 73.1982 333.446 73.0639 333.831 72.9967C334.217 72.934 334.606 72.8848 334.991 72.8624C336.075 72.7863 337.172 72.9922 338.282 73.4803C338.694 73.6594 339.07 73.9325 339.406 74.2952C339.742 74.6578 339.961 75.0563 340.064 75.4951C340.194 75.9876 340.225 76.4891 340.163 77.004C340.1 77.5189 340.028 78.0249 339.948 78.5129C339.097 83.6485 337.821 88.605 336.115 93.378C335.833 94.1794 335.546 94.9719 335.264 95.76C334.982 96.548 334.655 97.3136 334.297 98.0614C333.988 98.7822 333.626 99.4807 333.214 100.152C332.802 100.824 332.309 101.415 331.741 101.934C331.199 102.476 330.59 102.825 329.923 102.978L329.905 102.987Z" fill="#03B5BB"/>
<path d="M138.118 111.807C138.118 105.727 141.821 102.274 146.545 102.274C148.994 102.274 150.704 103.398 151.859 104.589L149.594 107.137C148.81 106.358 147.982 105.834 146.545 105.834C144.158 105.834 142.367 108.028 142.367 111.673C142.367 115.317 143.84 117.583 146.71 117.583C147.391 117.583 148.089 117.395 148.475 117.045V113.902H145.833V110.544H152.164V118.935C150.96 120.068 148.801 121.138 146.469 121.138C141.821 121.138 138.114 117.941 138.114 111.807H138.118Z" fill="black"/>
<path d="M155.334 116.966C155.334 113.863 157.899 112.282 164.445 111.884C164.302 110.643 163.366 109.887 161.508 109.887C160.174 109.887 158.844 110.402 157.286 111.185L155.822 108.494C157.743 107.397 159.95 106.618 162.305 106.618C166.2 106.618 168.56 108.642 168.56 112.887V120.803H165.202L164.907 119.24H164.804C163.402 120.292 161.669 121.134 159.892 121.134C157.089 121.134 155.338 119.289 155.338 116.957L155.334 116.966ZM164.445 116.634V114.364C160.371 114.57 159.274 115.452 159.274 116.634C159.274 117.525 160.026 117.959 161.186 117.959C162.417 117.959 163.465 117.395 164.441 116.634H164.445Z" fill="black"/>
<path d="M171.323 106.949H174.417L174.712 108.655H174.806C175.321 107.54 176.203 106.613 177.806 106.613C179.006 106.613 179.884 107.397 180.215 108.879C180.716 107.63 181.693 106.613 183.278 106.613C185.257 106.613 186.376 108.315 186.376 111.082V120.798H182.476V111.368C182.476 110.509 182.27 110.101 181.728 110.101C181.187 110.101 180.842 110.536 180.457 111.449V120.793H177.246V111.364C177.246 110.504 176.996 110.097 176.454 110.097C175.948 110.097 175.594 110.531 175.227 111.444V120.789H171.327V106.936L171.323 106.949Z" fill="black"/>
<path d="M188.61 113.872C188.61 109.34 192.107 106.618 195.819 106.618C200.091 106.618 202.338 109.502 202.338 113.267C202.338 114.019 202.222 114.763 202.168 115.107H191.659V112.354H199.392L198.747 113.137C198.747 110.912 197.78 109.743 195.958 109.743C193.93 109.743 192.595 111.118 192.595 113.872C192.595 116.625 194.158 118.009 196.853 118.009C198.111 118.009 199.195 117.668 200.422 117.046L201.783 119.522C200.202 120.538 198.147 121.143 196.294 121.143C191.973 121.143 188.615 118.479 188.615 113.876L188.61 113.872Z" fill="black"/>
<path d="M205.275 119.016L207.021 116.455C208.727 117.512 210.63 118.098 212.609 118.098C214.132 118.098 214.808 117.592 214.808 116.912C214.808 116.142 214.136 115.86 211.418 115.286C207.648 114.481 206.153 113.097 206.153 110.957C206.153 108.378 208.562 106.618 212.52 106.618C214.987 106.618 217.073 107.59 218.515 108.512L216.675 110.979C215.278 110.133 213.675 109.654 212.144 109.654C210.863 109.654 210.223 110.111 210.223 110.764C210.223 111.534 211.073 111.713 213.424 112.242C217.7 113.2 218.887 114.418 218.887 116.67C218.887 119.177 216.496 121.143 212.05 121.143C209.578 121.143 207.021 120.185 205.275 119.021V119.016Z" fill="black"/>
</svg>
